<?xml version="1.0" encoding="UTF-8"?><svg xmlns="http://www.w3.org/2000/svg" viewBox="0 0 112.4 112.4"><defs><style>.d{fill:#fff;}.e{fill:#ff2c12;}.f{fill:#00a331;}.g{fill:#2db1ff;}</style></defs><g id="a"/><g id="b"><g id="c"><g><g><circle class="e" cx="58.12" cy="56.1" r="31.28"/><path class="d" d="M78.15,52.92l-27.2-15.7c-2.53-1.46-5.7,.37-5.7,3.29v31.4c0,2.92,3.16,4.75,5.7,3.29l27.2-15.7c2.53-1.46,2.53-5.12,0-6.58Z"/></g><path class="g" d="M20.15,92.25C8.17,84.37,1.09,70.51,.13,56.21-2.15,25.04,25.02-2.15,56.19,.13c10.91,.74,21.34,4.92,29.33,12.19,2.58,2.35,4.87,4.97,6.72,7.84-2.87-1.84-5.77-3.48-8.73-4.84-8.51-3.94-18.17-5.77-27.32-4.99C31.84,12.06,12.02,31.85,10.3,56.21c-1.12,12.54,2.81,25.47,9.85,36.04h0Z"/><path class="f" d="M20.15,92.25c10.57,7.03,23.5,10.97,36.04,9.85,24.36-1.72,44.15-21.54,45.87-45.89,.78-9.14-1.05-18.81-4.99-27.32-1.36-2.96-3-5.85-4.84-8.73,2.87,1.85,5.49,4.13,7.84,6.72,7.27,7.99,11.44,18.42,12.19,29.33,2.28,31.18-24.91,58.34-56.08,56.06-14.29-.95-28.16-8.04-36.04-20.01h0Z"/></g></g></g></svg>