<svg width="51" height="50" viewBox="0 0 51 50" fill="none" xmlns="http://www.w3.org/2000/svg">
<path fill-rule="evenodd" clip-rule="evenodd" d="M38.4086 21.2043C38.4086 30.7059 30.7059 38.4086 21.2043 38.4086C11.7026 38.4086 4 30.7059 4 21.2043C4 11.7026 11.7026 4 21.2043 4C30.7059 4 38.4086 11.7026 38.4086 21.2043ZM35.1996 37.1343C31.4654 40.4175 26.5674 42.4086 21.2043 42.4086C9.49348 42.4086 0 32.9151 0 21.2043C0 9.49348 9.49348 0 21.2043 0C32.9151 0 42.4086 9.49348 42.4086 21.2043C42.4086 26.1111 40.7419 30.6286 37.9438 34.2216L50.088 46.3658C50.869 47.1469 50.869 48.4132 50.088 49.1943C49.3069 49.9753 48.0406 49.9753 47.2596 49.1943L35.1996 37.1343Z" fill="white"/>
</svg>
